<?xml version="1.0" encoding="iso-8859-1"?>
<!-- Uploaded to: SVG Repo, www.svgrepo.com, Generator: SVG Repo Mixer Tools -->
<svg height="800px" width="800px" version="1.1" id="Layer_1" xmlns="http://www.w3.org/2000/svg" xmlns:xlink="http://www.w3.org/1999/xlink" 
	 viewBox="0 0 511.998 511.998" xml:space="preserve">
<g>
	<path style="fill:#830018;" d="M487.753,255.507h-26.776c-9.156,0-16.648-7.492-16.648-16.648v-1.666
		c0-9.157,7.492-16.648,16.648-16.648h26.777c9.156,0,16.648,7.492,16.648,16.648v1.666
		C504.401,248.016,496.909,255.507,487.753,255.507z"/>
	<path style="fill:#830018;" d="M51.025,251.644H24.247c-9.157,0-16.648-7.492-16.648-16.648v-1.666
		c0-9.157,7.492-16.648,16.648-16.648h26.777c9.157,0,16.648,7.492,16.648,16.648v1.666
		C67.673,244.152,60.181,251.644,51.025,251.644z"/>
</g>
<g>
	<path style="fill:#C2DFF6;" d="M374.799,341.162c53.936,13.595,90.529-29.714,101.315-72.502
		c10.786-42.788-15.159-86.219-57.947-97.005s-128.6,4.476-139.385,47.265C267.997,261.709,317.773,326.788,374.799,341.162z"/>
	<path style="fill:#C2DFF6;" d="M137.201,341.162c-53.936,13.595-90.529-29.714-101.315-72.502s15.159-86.219,57.947-97.005
		s128.6,4.476,139.386,47.265S194.227,326.788,137.201,341.162z"/>
</g>
<g>
	<path style="fill:#96C8EF;" d="M88.932,197.999c42.788-10.786,128.6,4.476,139.386,47.265c0.942,3.737,1.412,7.647,1.465,11.674
		c4.846-13.339,6.344-26.489,3.437-38.018c-10.786-42.788-96.597-58.051-139.386-47.265c-35.841,9.034-59.848,40.975-60.366,76.255
		C42.283,223.997,62.354,204.698,88.932,197.999z"/>
	<path style="fill:#96C8EF;" d="M423.068,197.999c-42.788-10.786-128.6,4.476-139.386,47.265c-0.942,3.737-1.412,7.647-1.465,11.674
		c-4.846-13.339-6.344-26.489-3.437-38.018c10.786-42.788,96.597-58.051,139.386-47.265c35.841,9.034,59.848,40.975,60.366,76.255
		C469.717,223.997,449.647,204.698,423.068,197.999z"/>
	<path style="fill:#96C8EF;" d="M426.754,305.911c-1.896,0-3.794-0.705-5.269-2.124c-3.023-2.91-3.117-7.721-0.207-10.744
		c8.185-8.505,14.742-20.777,17.992-33.669c1.025-4.07,5.156-6.536,9.225-5.511c4.07,1.026,6.537,5.156,5.511,9.225
		c-3.878,15.382-11.815,30.14-21.778,40.493C430.74,305.131,428.748,305.911,426.754,305.911z"/>
	<path style="fill:#96C8EF;" d="M117.407,320.909c-4.197,0-7.599-3.401-7.599-7.599c0-4.198,3.402-7.599,7.599-7.599
		c3.307,0,6.842-0.468,10.508-1.391c4.071-1.025,8.2,1.443,9.225,5.512s-1.443,8.2-5.513,9.224
		C126.749,320.286,121.965,320.909,117.407,320.909z"/>
	<path style="fill:#96C8EF;" d="M91.907,311.869c-1.602,0-3.216-0.504-4.59-1.547c-13.489-10.243-24.452-27.9-29.326-47.233
		c-1.026-4.07,1.442-8.2,5.511-9.225c4.069-1.031,8.2,1.442,9.225,5.511c4.058,16.098,12.947,30.62,23.779,38.845
		c3.343,2.538,3.994,7.304,1.457,10.647C96.471,310.833,94.202,311.869,91.907,311.869z"/>
</g>
<path d="M95.69,179.024c7.462-1.45,16.475-2.924,26.326-3.084c4.197-0.068,7.543-3.525,7.475-7.722
	c-0.069-4.197-3.518-7.575-7.722-7.475c-11.161,0.181-21.184,1.373-29.794,3.543c-4.07,1.025-6.537,5.156-5.511,9.225
	C87.333,176.958,91.858,179.769,95.69,179.024z"/>
<path d="M487.753,212.946h-9.494c-10.655-23.382-31.437-41.905-58.234-48.659c-23.135-5.831-56.729-4.423-85.584,3.589
	c-19.791,5.495-35.537,13.444-46.502,23.271c-10.299-5.397-22.005-8.461-34.417-8.461c-11.165,0-21.757,2.479-31.268,6.905
	c-15.284-12.878-38.783-22.278-68.037-26.639c-4.155-0.617-8.019,2.244-8.637,6.396c-0.619,4.151,2.244,8.018,6.395,8.636
	c31.69,4.724,67.739,18.447,73.876,42.795c4.531,17.975-3.397,42.368-21.208,65.252c-18.369,23.601-44.275,41.456-69.298,47.764
	c-6.26,1.578-12.26,2.314-17.993,2.314c-38.763-0.002-65.126-33.72-74.096-69.305c-7.314-29.022,3.675-59.037,27.997-76.469
	c3.412-2.444,4.195-7.192,1.751-10.603c-2.446-3.411-7.193-4.195-10.603-1.75c-11.353,8.135-20.493,18.768-26.833,31.102H24.25
	C10.877,209.084,0,219.681,0,233.33c0,24.795,26.453,25.913,26.453,25.913c0.445,3.774,1.122,7.538,2.063,11.273
	c10.823,42.936,43.868,80.76,89.085,80.758c6.882,0,14.047-0.876,21.456-2.744c28.618-7.213,56.895-26.592,77.577-53.167
	c20.665-26.549,29.618-55.822,23.952-78.301c-1.075-4.267-2.803-8.365-5.127-12.271c5.663-1.963,11.737-3.036,18.061-3.036
	c7.859,0,15.337,1.649,22.113,4.614c-1.867,3.428-3.288,6.995-4.22,10.694c-5.667,22.48,3.287,51.751,23.952,78.301
	c2.577,3.312,7.352,3.907,10.664,1.33c3.312-2.579,3.907-7.353,1.329-10.664c-17.81-22.884-25.739-47.277-21.208-65.252
	c4.086-16.21,23.168-30.155,52.355-38.258c26.093-7.244,57.359-8.649,77.804-3.496c18.726,4.72,34.493,16.45,44.397,33.03
	c9.903,16.578,12.759,36.022,8.039,54.749c-10.296,40.849-43.506,79.238-92.09,66.991c-13.751-3.466-27.928-10.421-40.998-20.113
	c-3.37-2.5-8.129-1.792-10.631,1.578c-2.5,3.371-1.793,8.13,1.578,10.631c14.652,10.866,30.674,18.695,46.337,22.642
	c7.413,1.868,14.572,2.744,21.456,2.744c45.212,0,78.262-37.825,89.085-80.758c0.622-2.469,1.126-4.941,1.527-7.41
	c0,0,26.575-1.876,26.989-25.913C512,223.168,501.123,212.946,487.753,212.946z M15.198,233.33
	c0.161-11.175,14.261-9.049,14.261-9.049c-1.925,6.468-3.087,13.091-3.473,19.764C25.986,244.045,15.037,244.505,15.198,233.33z
	 M486.132,247.908c-0.095-6.735-0.974-13.36-2.568-19.764c0,0,12.891-1.751,13.237,9.049S486.132,247.908,486.132,247.908z"/>
</svg>